<svg width="18" height="15" viewBox="0 0 18 15" fill="none" xmlns="http://www.w3.org/2000/svg">
<path d="M6.104 13L3.448 8.44H1.688V13H0.232V1.848H3.832C4.67467 1.848 5.384 1.992 5.96 2.28C6.54667 2.568 6.984 2.95733 7.272 3.448C7.56 3.93867 7.704 4.49867 7.704 5.128C7.704 5.896 7.48 6.57333 7.032 7.16C6.59467 7.74667 5.93333 8.136 5.048 8.328L7.848 13H6.104ZM1.688 7.272H3.832C4.62133 7.272 5.21333 7.08 5.608 6.696C6.00267 6.30133 6.2 5.77867 6.2 5.128C6.2 4.46667 6.00267 3.95467 5.608 3.592C5.224 3.22933 4.632 3.048 3.832 3.048H1.688V7.272ZM17.1664 9.944C17.1664 10.456 17.0384 10.9467 16.7824 11.416C16.5264 11.8747 16.1477 12.2587 15.6464 12.568C15.1557 12.8773 14.5637 13.0533 13.8704 13.096V14.392H13.0064V13.096C12.0357 13.0107 11.2464 12.7013 10.6384 12.168C10.0304 11.624 9.72104 10.936 9.71038 10.104H11.2624C11.305 10.552 11.4704 10.9413 11.7584 11.272C12.057 11.6027 12.473 11.8107 13.0064 11.896V7.896C12.2917 7.71467 11.7157 7.528 11.2784 7.336C10.841 7.144 10.4677 6.84533 10.1584 6.44C9.84904 6.03467 9.69438 5.49067 9.69438 4.808C9.69438 3.944 9.99304 3.22933 10.5904 2.664C11.1984 2.09867 12.0037 1.784 13.0064 1.72V0.391999H13.8704V1.72C14.777 1.79467 15.5077 2.088 16.0624 2.6C16.617 3.10133 16.937 3.75733 17.0224 4.568H15.4704C15.417 4.19467 15.2517 3.85867 14.9744 3.56C14.697 3.25067 14.329 3.048 13.8704 2.952V6.856C14.5744 7.03733 15.145 7.224 15.5824 7.416C16.0304 7.59733 16.4037 7.89067 16.7024 8.296C17.0117 8.70133 17.1664 9.25067 17.1664 9.944ZM11.1824 4.728C11.1824 5.25067 11.337 5.65067 11.6464 5.928C11.9557 6.20533 12.409 6.43467 13.0064 6.616V2.92C12.4517 2.97333 12.009 3.15467 11.6784 3.464C11.3477 3.76267 11.1824 4.184 11.1824 4.728ZM13.8704 11.912C14.4464 11.848 14.8944 11.64 15.2144 11.288C15.545 10.936 15.7104 10.5147 15.7104 10.024C15.7104 9.50133 15.5504 9.10133 15.2304 8.824C14.9104 8.536 14.457 8.30667 13.8704 8.136V11.912Z" fill="#6A6180"/>
</svg>
